<svg width="69" height="77" viewBox="0 0 69 77" fill="none" xmlns="http://www.w3.org/2000/svg">
<path d="M2.46429 14.1429H66.5357C67.8968 14.1429 69 12.7358 69 11V3.14286C69 1.40702 67.8968 0 66.5357 0H2.46429C1.10323 0 0 1.40702 0 3.14286V11C0 12.7358 1.10323 14.1429 2.46429 14.1429ZM2.46429 45.5714H66.5357C67.8968 45.5714 69 44.1644 69 42.4286V34.5714C69 32.8356 67.8968 31.4286 66.5357 31.4286H2.46429C1.10323 31.4286 0 32.8356 0 34.5714V42.4286C0 44.1644 1.10323 45.5714 2.46429 45.5714ZM2.46429 77H66.5357C67.8968 77 69 75.593 69 73.8571V66C69 64.2642 67.8968 62.8571 66.5357 62.8571H2.46429C1.10323 62.8571 0 64.2642 0 66V73.8571C0 75.593 1.10323 77 2.46429 77Z" fill="white"/>
</svg>
